<mxfile host="app.diagrams.net" modified="2023-05-08T09:13:30.900Z" agent="Mozilla/5.0 (Windows NT 10.0; Win64; x64) AppleWebKit/537.36 (KHTML, like Gecko) Chrome/112.0.0.0 Safari/537.36" etag="wDWA-ZpUCTBaF9DBTHvK" version="21.2.9" type="device">
  <diagram name="Page-1" id="r70a8aU7HjlKyLyBGXd_">
    <mxGraphModel dx="1434" dy="777" grid="1" gridSize="10" guides="1" tooltips="1" connect="1" arrows="1" fold="1" page="1" pageScale="1" pageWidth="827" pageHeight="1169" math="0" shadow="0">
      <root>
        <mxCell id="0" />
        <mxCell id="1" parent="0" />
        <mxCell id="7GQlZffVA45IAeIxjoa0-1" value="Admin" style="shape=umlActor;verticalLabelPosition=bottom;verticalAlign=top;html=1;outlineConnect=0;" parent="1" vertex="1">
          <mxGeometry x="70" y="490" width="90" height="190" as="geometry" />
        </mxCell>
        <mxCell id="7GQlZffVA45IAeIxjoa0-2" value="Ajouter, modifier ou supprimer des utilisateurs" style="ellipse;whiteSpace=wrap;html=1;" parent="1" vertex="1">
          <mxGeometry x="250" y="490" width="120" height="80" as="geometry" />
        </mxCell>
        <mxCell id="7GQlZffVA45IAeIxjoa0-4" value="&lt;span style=&quot;text-indent: -18pt; background-color: initial;&quot; lang=&quot;FR&quot;&gt;Ajouter, modifier ou supprimer des locations&lt;br&gt;&lt;/span&gt;" style="ellipse;whiteSpace=wrap;html=1;" parent="1" vertex="1">
          <mxGeometry x="250" y="600" width="120" height="80" as="geometry" />
        </mxCell>
        <mxCell id="7GQlZffVA45IAeIxjoa0-7" value="" style="endArrow=none;html=1;rounded=0;entryX=0.042;entryY=0.713;entryDx=0;entryDy=0;entryPerimeter=0;" parent="1" target="7GQlZffVA45IAeIxjoa0-2" edge="1">
          <mxGeometry width="50" height="50" relative="1" as="geometry">
            <mxPoint x="170" y="590" as="sourcePoint" />
            <mxPoint x="180" y="1105" as="targetPoint" />
          </mxGeometry>
        </mxCell>
        <mxCell id="7GQlZffVA45IAeIxjoa0-9" value="" style="endArrow=none;html=1;rounded=0;entryX=0.033;entryY=0.313;entryDx=0;entryDy=0;entryPerimeter=0;" parent="1" target="7GQlZffVA45IAeIxjoa0-4" edge="1">
          <mxGeometry width="50" height="50" relative="1" as="geometry">
            <mxPoint x="170" y="590" as="sourcePoint" />
            <mxPoint x="500" y="520" as="targetPoint" />
          </mxGeometry>
        </mxCell>
      </root>
    </mxGraphModel>
  </diagram>
</mxfile>
